<?xml version="1.0" encoding="utf-8"?>
<!-- Generator: Adobe Illustrator 22.1.0, SVG Export Plug-In . SVG Version: 6.00 Build 0)  -->
<svg version="1.1" id="Layer_1" xmlns="http://www.w3.org/2000/svg" xmlns:xlink="http://www.w3.org/1999/xlink" x="0px" y="0px"
	 viewBox="0 0 32 32" style="enable-background:new 0 0 32 32;" xml:space="preserve">
<title>linkedin-in</title>
<path d="M8.3,28H2.5V9.3h5.8V28z M5.4,6.8C3.5,6.8,2,5.2,2,3.4S3.5,0,5.4,0s3.4,1.5,3.4,3.4C8.7,5.2,7.2,6.8,5.4,6.8z M30,28h-5.8
	v-9.1c0-2.2,0-4.9-3-4.9c-3,0-3.5,2.4-3.5,4.8V28h-5.8V9.3h5.6v2.6h0.1c0.8-1.5,2.7-3,5.5-3c5.9,0,7,3.9,7,8.9L30,28L30,28z"/>
</svg>
